HIERARCHY
ROOT Hips
{
  OFFSET 55.1429 91.6911 37.039
  CHANNELS 6 Xposition Yposition Zposition Zrotation Xrotation Yrotation
  JOINT spine
  {
    OFFSET 0 6.84637 0.3937
    CHANNELS 3 Zrotation Xrotation Yrotation
    JOINT spine1
    {
      OFFSET 0 9.49621 0
      CHANNELS 3 Zrotation Xrotation Yrotation
      JOINT spine2
      {
        OFFSET 0 9.09909 0
        CHANNELS 3 Zrotation Xrotation Yrotation
        JOINT Neck
        {
          OFFSET 0 23.3612 1.11378
          CHANNELS 3 Zrotation Xrotation Yrotation
          JOINT Head
          {
            OFFSET 0 7.05802 0
            CHANNELS 3 Zrotation Xrotation Yrotation
            End Site
            {
              OFFSET 0 17.0844 -5.63419
            }
          }
        }
        JOINT RightShoulder
        {
          OFFSET -3.83136 9.82631 -0.533491
          CHANNELS 3 Zrotation Xrotation Yrotation
          JOINT RightArm
          {
            OFFSET 0 12.8881 0
            CHANNELS 3 Zrotation Xrotation Yrotation
            JOINT RightArmRoll
            {
              OFFSET 0 6.50617 0
              CHANNELS 3 Zrotation Xrotation Yrotation
              JOINT RightForeArm
              {
                OFFSET 0 18.9501 0
                CHANNELS 3 Zrotation Xrotation Yrotation
                JOINT RightForeArmRoll
                {
                  OFFSET 0 7.30092 0
                  CHANNELS 3 Zrotation Xrotation Yrotation
                  JOINT RightHand
                  {
                    OFFSET 0 14.6514 0
                    CHANNELS 3 Zrotation Xrotation Yrotation
                    End Site
                    {
                      OFFSET 0 0 0
                    }
                  }
                }
              }
            }
          }
        }
        JOINT LeftShoulder
        {
          OFFSET 3.83136 9.82631 -0.533491
          CHANNELS 3 Zrotation Xrotation Yrotation
          JOINT LeftArm
          {
            OFFSET 0 12.8881 0
            CHANNELS 3 Zrotation Xrotation Yrotation
            JOINT LeftArmRoll
            {
              OFFSET 0 6.50617 0
              CHANNELS 3 Zrotation Xrotation Yrotation
              JOINT LeftForeArm
              {
                OFFSET 0 18.9501 0
                CHANNELS 3 Zrotation Xrotation Yrotation
                JOINT LeftForeArmRoll
                {
                  OFFSET 0 7.30093 0
                  CHANNELS 3 Zrotation Xrotation Yrotation
                  JOINT LeftHand
                  {
                    OFFSET 0 14.6514 0
                    CHANNELS 3 Zrotation Xrotation Yrotation
                    End Site
                    {
                      OFFSET 0 0 0
                    }
                  }
                }
              }
            }
          }
        }
      }
    }
  }
  JOINT RightUpLeg
  {
    OFFSET -6.06837 -1.11278 -0.933477
    CHANNELS 3 Zrotation Xrotation Yrotation
    JOINT RightUpLegRoll
    {
      OFFSET 0 17.1796 0
      CHANNELS 3 Zrotation Xrotation Yrotation
      JOINT RightLeg
      {
        OFFSET 0 -21.2743 0
        CHANNELS 3 Zrotation Xrotation Yrotation
        JOINT RightLegRoll
        {
          OFFSET 0 21.3439 0
          CHANNELS 3 Zrotation Xrotation Yrotation
          JOINT RightFoot
          {
            OFFSET 0 17.7652 0
            CHANNELS 3 Zrotation Xrotation Yrotation
            JOINT RightToeBase
            {
              OFFSET 0 14.8508 0
              CHANNELS 3 Zrotation Xrotation Yrotation
              End Site
              {
                OFFSET 0.0062947 7.19213 -0.829005
              }
            }
          }
        }
      }
    }
  }
  JOINT LeftUpLeg
  {
    OFFSET 6.06837 -1.11278 -0.933477
    CHANNELS 3 Zrotation Xrotation Yrotation
    JOINT LeftUpLegRoll
    {
      OFFSET 0 17.1797 0
      CHANNELS 3 Zrotation Xrotation Yrotation
      JOINT LeftLeg
      {
        OFFSET 0 21.2742 0
        CHANNELS 3 Zrotation Xrotation Yrotation
        JOINT LeftLegRoll
        {
          OFFSET 0 21.5412 0
          CHANNELS 3 Zrotation Xrotation Yrotation
          JOINT LeftFoot
          {
            OFFSET 0 17.5679 0
            CHANNELS 3 Zrotation Xrotation Yrotation
            JOINT LeftToeBase
            {
              OFFSET 0 14.8508 0
              CHANNELS 3 Zrotation Xrotation Yrotation
              End Site
              {
                OFFSET -0.0282102 7.19214 -0.829004
              }
            }
          }
        }
      }
    }
  }
}
MOTION
Frames: 11
Frame Time: 0.00208333
55.0653 79.5734 13.157 -4.08384 32.967 -1.87889 0.444266 -0.69746 0.334743 0.888047 2.61113 0.617161 0.881615 4.25606 0.602768 9.43103 -18.8991 1.12856 -3.33332 5.87224 1.20017 70.8566 6.32003 1.65004 96.1783 39.4496 -20.2195 1.19575e-006 -1.22606e-006 2.25525e-006 29.3852 11.8784 -1.7801 -3.42296e-006 -8.58041e-006 -3 8.02898 -4.95084 0.697385 -49.8846 -4.17185 1.85075 -143.66 48.4238 16.3373 -1.21156e-005 -4.65218e-006 4.86973e-006 -8.45787 0.0623679 1.98292 2.46719e-006 -1.0287e-005 3.34601 -8.02928 -4.95159 -0.697815 179.719 75.7144 0.119629 -180 1.52581e-005 179.47 172.946 44.842 -178.656 6.4777e-007 -6.66021e-007 0.79059 -17.8151 66.645 18.4729 8.1365 25.2327 -3.48774 -129.375 71.6362 -48.1749 4.5067e-006 -1.99009e-005 -0.400333 -8.45405 -51.44 -2.20156 -1.37498e-006 -4.95266e-006 -0.733848 19.9339 69.1023 -20.5091 -8.1365 25.2327 3.48774 
55.0568 79.6681 13.2649 -4.06779 32.8432 -1.88871 0.441471 -0.697983 0.332977 0.882964 2.61003 0.614027 0.876565 4.25496 0.599718 9.42023 -18.9315 1.13338 -3.32375 5.92231 1.20399 70.9346 6.33772 1.6447 96.191 39.4415 -19.925 1.19575e-006 -1.22606e-006 2.25525e-006 29.29 11.5631 -1.70625 -3.42296e-006 -8.58041e-006 -3 8.02898 -4.95084 0.697385 -49.9682 -4.13847 1.83389 -143.623 48.4131 16.0368 -1.21156e-005 -4.65218e-006 4.86973e-006 -8.17665 0.0603054 1.93426 2.46719e-006 -1.0287e-005 3.34652 -8.02928 -4.95159 -0.697815 179.816 75.3691 -0.0133992 -180 1.52581e-005 179.47 173.013 44.6411 -178.69 6.4777e-007 -6.66021e-007 0.786038 -17.8091 66.6427 18.4713 8.1365 25.2327 -3.48774 -130.248 71.4245 -47.2742 4.5067e-006 -1.99009e-005 -0.402296 -8.43639 -51.2458 -2.18777 -1.37498e-006 -4.95266e-006 -0.72902 19.9351 69.1078 -20.5139 -8.1365 25.2327 3.48774 
55.0959 79.7561 13.4167 -4.04892 32.7181 -1.89993 0.438104 -0.698206 0.331358 0.876806 2.60952 0.611289 0.870435 4.25445 0.597082 9.4101 -18.958 1.13785 -3.31546 5.96621 1.20777 71.0121 6.35394 1.63868 96.2018 39.4383 -19.6245 1.19575e-006 -1.22606e-006 2.25525e-006 29.1867 11.2175 -1.62307 -3.42296e-006 -8.58041e-006 -3 8.02898 -4.95084 0.697385 -50.0606 -4.09386 1.80958 -143.559 48.4006 15.7284 -1.21156e-005 -4.65218e-006 4.86973e-006 -7.91025 0.0583568 1.88637 2.46719e-006 -1.0287e-005 3.34696 -8.02928 -4.95159 -0.697815 179.912 75.0235 -0.147676 -180 1.52581e-005 179.469 173.084 44.4415 -178.725 6.4777e-007 -6.66021e-007 0.781458 -17.804 66.6412 18.4704 8.1365 25.2327 -3.48774 -131.107 71.2081 -46.3897 4.5067e-006 -1.99009e-005 -0.404197 -8.42042 -51.0518 -2.1749 -1.37498e-006 -4.95266e-006 -0.724127 19.9369 69.1139 -20.5193 -8.1365 25.2327 3.48774 
55.111 79.88 13.5373 -4.02772 32.5919 -1.91232 0.434264 -0.698199 0.329875 0.869755 2.60945 0.608907 0.863406 4.25438 0.594818 9.40049 -18.9791 1.14199 -3.30825 6.00478 1.21149 71.0892 6.36885 1.63209 96.2107 39.4387 -19.3193 1.19575e-006 -1.22606e-006 2.25525e-006 29.0766 10.8469 -1.53227 -3.42296e-006 -8.58041e-006 -3 8.02898 -4.95084 0.697385 -50.1607 -4.03962 1.77888 -143.47 48.3863 15.4135 -1.21156e-005 -4.65218e-006 4.86973e-006 -7.65723 0.0565104 1.83919 2.46719e-006 -1.0287e-005 3.34734 -8.02928 -4.95159 -0.697815 -179.993 74.6777 -0.282452 -180 1.52581e-005 179.468 173.158 44.2431 -178.761 6.4777e-007 -6.66021e-007 0.776855 -17.7996 66.6403 18.4699 8.1365 25.2327 -3.48774 -131.95 70.9874 -45.5224 4.5067e-006 -1.99009e-005 -0.406047 -8.4058 -50.8581 -2.16278 -1.37498e-006 -4.95266e-006 -0.719188 19.9391 69.1205 -20.5251 -8.1365 25.2327 3.48774 
55.1067 79.9763 13.6486 -4.00472 32.465 -1.92563 0.430047 -0.698034 0.32852 0.861992 2.60969 0.606837 0.85566 4.25463 0.592878 9.39126 -18.9952 1.14579 -3.30194 6.03887 1.21515 71.1656 6.38264 1.62505 96.2176 39.4414 -19.0112 1.19575e-006 -1.22606e-006 2.25525e-006 28.9613 10.457 -1.43557 -3.42296e-006 -8.58041e-006 -3 8.02898 -4.95084 0.697385 -50.2672 -3.97732 1.74284 -143.361 48.3701 15.0932 -1.21156e-005 -4.65218e-006 4.86973e-006 -7.41613 0.0547547 1.79268 2.46719e-006 -1.0287e-005 3.34767 -8.02928 -4.95159 -0.697815 -179.901 74.3319 -0.417046 -180 1.52581e-005 179.467 173.235 44.0455 -178.798 6.4777e-007 -6.66021e-007 0.772232 -17.7957 66.6398 18.4697 8.1365 25.2327 -3.48774 -132.776 70.7624 -44.673 4.5067e-006 -1.99009e-005 -0.407853 -8.39219 -50.6646 -2.15122 -1.37498e-006 -4.95266e-006 -0.71422 19.9418 69.1275 -20.5312 -8.1365 25.2327 3.48774 
55.1177 80.0816 13.7724 -3.98039 32.3375 -1.93964 0.425553 -0.69778 0.327282 0.853699 2.61009 0.605039 0.847382 4.25504 0.591218 9.38226 -19.0068 1.14926 -3.29635 6.0693 1.21875 71.2413 6.39549 1.61766 96.2227 39.4452 -18.7017 1.19575e-006 -1.22606e-006 2.25525e-006 28.8424 10.0533 -1.33464 -3.42296e-006 -8.58041e-006 -3 8.02898 -4.95084 0.697385 -50.3787 -3.90854 1.70252 -143.235 48.3519 14.769 -1.21156e-005 -4.65218e-006 4.86973e-006 -7.1855 0.053078 1.7468 2.46719e-006 -1.0287e-005 3.34794 -8.02928 -4.95159 -0.697815 -179.811 73.986 -0.55084 -180 1.52581e-005 179.466 173.314 43.8485 -178.836 6.4777e-007 -6.66021e-007 0.767596 -17.7922 66.6396 18.4696 8.1365 25.2327 -3.48774 -133.584 70.5335 -43.842 4.5067e-006 -1.99009e-005 -0.409622 -8.37927 -50.4713 -2.14005 -1.37498e-006 -4.95266e-006 -0.70924 19.9446 69.1347 -20.5375 -8.1365 25.2327 3.48774 
55.1192 80.2033 13.8834 -3.95524 32.2097 -1.9541 0.420879 -0.697508 0.326153 0.845058 2.61053 0.603468 0.838752 4.25548 0.589793 9.37333 -19.0144 1.1524 -3.29128 6.09692 1.22227 71.3162 6.40759 1.61003 96.2259 39.4488 -18.3923 1.19575e-006 -1.22606e-006 2.25525e-006 28.7211 9.64134 -1.23115 -3.42296e-006 -8.58041e-006 -3 8.02898 -4.95084 0.697385 -50.4941 -3.83486 1.65899 -143.095 48.3315 14.442 -1.21156e-005 -4.65218e-006 4.86973e-006 -6.96391 0.0514688 1.70148 2.46719e-006 -1.0287e-005 3.34816 -8.02928 -4.95159 -0.697815 -179.723 73.6404 -0.683271 -180 1.52581e-005 179.465 173.394 43.652 -178.873 6.4777e-007 -6.66021e-007 0.76295 -17.7888 66.6396 18.4697 8.1365 25.2327 -3.48774 -134.373 70.3009 -43.0302 4.5067e-006 -1.99009e-005 -0.411364 -8.36671 -50.2779 -2.12909 -1.37498e-006 -4.95266e-006 -0.704266 19.9475 69.142 -20.5439 -8.1365 25.2327 3.48774 
55.1274 80.3009 14.0046 -3.92976 32.0817 -1.9688 0.416124 -0.69729 0.325123 0.836251 2.61085 0.602085 0.829953 4.2558 0.588557 9.36434 -19.0183 1.15522 -3.28656 6.12256 1.22572 71.3902 6.41911 1.60227 96.2274 39.451 -18.0846 1.19575e-006 -1.22606e-006 2.25525e-006 28.5988 9.22668 -1.12673 -3.42296e-006 -8.58041e-006 -3 8.02898 -4.95084 0.697385 -50.6121 -3.75785 1.61329 -142.946 48.3091 14.1134 -1.21156e-005 -4.65218e-006 4.86973e-006 -6.74989 0.0499155 1.65669 2.46719e-006 -1.0287e-005 3.34834 -8.02928 -4.95159 -0.697815 -179.638 73.2951 -0.813827 -180 1.52581e-005 179.465 173.476 43.4555 -178.911 6.4777e-007 -6.66021e-007 0.758298 -17.7855 66.6394 18.4697 8.1365 25.2327 -3.48774 -135.144 70.0649 -42.238 4.5067e-006 -1.99009e-005 -0.413085 -8.35418 -50.0846 -2.11819 -1.37498e-006 -4.95266e-006 -0.699316 19.9503 69.1492 -20.5502 -8.1365 25.2327 3.48774 
55.126 80.4033 14.1173 -3.90445 31.9539 -1.98349 0.411385 -0.697196 0.324182 0.827459 2.61093 0.600846 0.821168 4.25589 0.587465 9.35514 -19.0191 1.15772 -3.282 6.14706 1.22908 71.4632 6.43023 1.59448 96.2272 39.4505 -17.7803 1.19575e-006 -1.22606e-006 2.25525e-006 28.4766 8.81486 -1.02299 -3.42296e-006 -8.58041e-006 -3 8.02898 -4.95084 0.697385 -50.7314 -3.67909 1.56649 -142.79 48.2844 13.7847 -1.21156e-005 -4.65218e-006 4.86973e-006 -6.542 0.0484065 1.61238 2.46719e-006 -1.0287e-005 3.34846 -8.02928 -4.95159 -0.697815 -179.555 72.9502 -0.94204 -180 1.52581e-005 179.464 173.557 43.2589 -178.949 6.4777e-007 -6.66021e-007 0.753645 -17.782 66.6389 18.4695 8.1365 25.2327 -3.48774 -135.894 69.8257 -41.4657 4.5067e-006 -1.99009e-005 -0.414796 -8.34136 -49.8913 -2.10716 -1.37498e-006 -4.95266e-006 -0.694406 19.9529 69.1562 -20.5564 -8.1365 25.2327 3.48774 
55.1317 80.505 14.2353 -3.87978 31.8264 -1.99795 0.406762 -0.697296 0.32332 0.818864 2.61062 0.599709 0.812578 4.25558 0.586472 9.34557 -19.0172 1.15991 -3.27741 6.17125 1.23235 71.535 6.44115 1.58677 96.2256 39.4463 -17.4811 1.19575e-006 -1.22606e-006 2.25525e-006 28.3557 8.41145 -0.92156 -3.42296e-006 -8.58041e-006 -3 8.02898 -4.95084 0.697385 -50.8508 -3.60018 1.51963 -142.632 48.2576 13.4569 -1.21156e-005 -4.65218e-006 4.86973e-006 -6.33879 0.0469301 1.5685 2.46719e-006 -1.0287e-005 3.34853 -8.02928 -4.95159 -0.697815 -179.474 72.606 -1.06748 -180 1.52581e-005 179.463 173.638 43.062 -178.986 6.4777e-007 -6.66021e-007 0.748996 -17.7783 66.6381 18.469 8.1365 25.2327 -3.48774 -136.624 69.5837 -40.7138 4.5067e-006 -1.99009e-005 -0.416503 -8.32793 -49.6978 -2.09584 -1.37498e-006 -4.95266e-006 -0.689556 19.9553 69.1629 -20.5622 -8.1365 25.2327 3.48774 
55.1299 80.6442 14.3483 -3.85625 31.6996 -2.01195 0.402351 -0.697661 0.32253 0.810649 2.60978 0.598633 0.804366 4.25474 0.585533 9.3355 -19.0129 1.1618 -3.2726 6.19598 1.23553 71.6056 6.45203 1.57926 96.2227 39.4371 -17.1886 1.19575e-006 -1.22606e-006 2.25525e-006 28.2371 8.022 -0.824012 -3.42296e-006 -8.58041e-006 -3 8.02898 -4.95084 0.697385 -50.9691 -3.52268 1.47378 -142.475 48.2285 13.1314 -1.21156e-005 -4.65218e-006 4.86973e-006 -6.13882 0.0454748 1.52501 2.46719e-006 -1.0287e-005 3.34857 -8.02928 -4.95159 -0.697815 -179.395 72.2625 -1.18975 -180 1.52581e-005 179.462 173.719 42.8645 -179.022 6.4777e-007 -6.66021e-007 0.744355 -17.774 66.6366 18.468 8.1365 25.2327 -3.48774 -137.333 69.3391 -39.9825 4.5067e-006 -1.99009e-005 -0.418214 -8.31358 -49.5041 -2.08409 -1.37498e-006 -4.95266e-006 -0.684781 19.9571 69.169 -20.5676 -8.1365 25.2327 3.48774 
